Coordinates
version=1
nRows=24
nColumns=22
inDegrees=yes

Units are S.I. units (second, meters, Newtons, ...)
If the header above contains a line with 'inDegrees', this indicates whether rotational values are in degrees (yes) or radians (no).

endheader
time	pelvis_tilt	pelvis_list	pelvis_rotation	pelvis_tx	pelvis_ty	pelvis_tz	hip_flexion_r	hip_adduction_r	hip_rotation_r	knee_angle_r	ankle_angle_r	subtalar_angle_r	hip_flexion_l	hip_adduction_l	hip_rotation_l	knee_angle_l	ankle_angle_l	subtalar_angle_l	lumbar_extension	lumbar_bending	lumbar_rotation
      4.51000000	     -7.80089806	      2.95018786	    -47.62597648	      0.99280662	      0.84732259	      0.91840546	    -10.52461903	     -1.14105529	     16.38325796	    -19.36158434	     10.54597105	      1.95610072	     32.70443525	     -8.74328696	      2.22273838	    -22.34064595	      0.65074598	      4.37597988	      2.69655156	      2.05067131	     15.26263207
      4.52000000	     -7.84726288	      2.87282407	    -47.48780795	      1.00076291	      0.84870279	      0.92102656	    -10.48118909	     -1.19593329	     16.51484593	    -20.06846011	      9.05296974	      2.64391075	     32.53134183	     -8.48529116	      2.29116014	    -23.00093385	      1.29815560	      4.04836245	      2.56669131	      2.14227479	     15.31908289
      4.53000000	     -7.94233271	      2.76262930	    -47.41386849	      1.00854231	      0.85003836	      0.92366546	    -10.36144827	     -1.18968269	     16.63684762	    -20.83364725	      7.52962118	      3.33298913	     32.31250392	     -8.32790841	      2.28826179	    -23.57110341	      1.97931982	      3.73454645	      2.44237280	      2.30828523	     15.43307707
      4.54000000	     -8.08015575	      2.63401849	    -47.40040352	      1.01611735	      0.85130641	      0.92631472	    -10.14607840	     -1.13176262	     16.74177283	    -21.68290708	      5.99353320	      4.00049333	     32.06423499	     -8.25873305	      2.21665872	    -24.06497980	      2.67961852	      3.44984869	      2.33114964	      2.52902312	     15.59423932
      4.55000000	     -8.24921976	      2.50577514	    -47.44457234	      1.02343940	      0.85249049	      0.92897064	     -9.81356146	     -1.03745773	     16.82207380	    -22.64764124	      4.47139669	      4.62422451	     31.80073853	     -8.25740503	      2.08597764	    -24.49285304	      3.38016656	      3.20482417	      2.23815933	      2.77453673	     15.79889574
      4.56000000	     -8.43079347	      2.38229553	    -47.55076589	      1.03046503	      0.85360887	      0.93166367	     -9.36723452	     -0.91571714	     16.89281155	    -23.74555761	      2.97603537	      5.03746969	     31.51435927	     -8.31521308	      1.87960974	    -24.85965815	      4.07276674	      3.04587312	      2.15184355	      3.02017840	     16.03472193
      4.57000000	     -8.63690795	      2.30532092	    -47.67262186	      1.03719790	      0.85455981	      0.93426132	     -8.72551365	     -0.78756276	     16.84731402	    -25.05152510	      1.58941207	      5.60401908	     31.28509822	     -8.37190705	      1.70057842	    -25.21053577	      4.71346713	      2.84564150	      2.11165259	      3.24148248	     16.30183389
      4.58000000	     -8.81136313	      2.27203794	    -47.82065105	      1.04366189	      0.85543331	      0.93686906	     -7.95888505	     -0.69472597	     16.72364039	    -26.52365026	      0.26770117	      6.03250168	     31.04016492	     -8.40701629	      1.46227919	    -25.50762484	      5.33031215	      2.69377910	      2.08122847	      3.38980409	     16.54946626
      4.59000000	     -8.96337687	      2.28164813	    -47.98095762	      1.04984858	      0.85620206	      0.93942385	     -7.03938122	     -0.63215186	     16.49486578	    -28.19421160	     -0.92804713	      6.40135191	     30.79995305	     -8.40978011	      1.22138712	    -25.76541700	      5.90194483	      2.55188591	      2.06357071	      3.47696589	     16.78535241
      4.60000000	     -9.07945447	      2.33383890	    -48.14005141	      1.05579650	      0.85686580	      0.94189414	     -5.98075488	     -0.62232861	     16.13058073	    -30.04948692	     -1.98246244	      6.74506371	     30.56032337	     -8.35926739	      0.98476062	    -25.98943470	      6.43997791	      2.39905585	      2.04755599	      3.49565955	     16.99843217
      4.61000000	     -9.13723547	      2.43878935	    -48.31382396	      1.06150358	      0.85743990	      0.94432890	     -4.78695292	     -0.70048629	     15.63828336	    -32.09048742	     -2.86580331	      7.02127097	     30.29216784	     -8.24492963	      0.70816913	    -26.15160550	      6.94898060	      2.25231927	      2.03051225	      3.41642927	     17.19386150
      4.62000000	     -9.15104647	      2.58462508	    -48.48216733	      1.06701764	      0.85789239	      0.94659193	     -3.45810994	     -0.86849268	     14.99237646	    -34.28945148	     -3.52184296	      7.27757041	     30.03328525	     -8.05641117	      0.45843306	    -26.30154348	      7.42383225	      2.06589487	      2.00594224	      3.27506954	     17.38051039
      4.63000000	     -9.10862763	      2.77161170	    -48.65494777	      1.07236953	      0.85825391	      0.94871924	     -2.01682115	     -1.15308012	     14.20924122	    -36.60663157	     -3.92254956	      7.47316555	     29.75648946	     -7.79275250	      0.19589786	    -26.41169290	      7.87544472	      1.84439340	      1.96872435	      3.06450329	     17.53718708
      4.64000000	     -9.00474760	      2.98803715	    -48.82928558	      1.07760349	      0.85855054	      0.95067391	     -0.49379049	     -1.56914013	     13.30112886	    -38.98641719	     -4.02777601	      7.57408444	     29.45265239	     -7.45050295	     -0.07042893	    -26.48388391	      8.30322868	      1.59959493	      1.90577168	      2.79536049	     17.66954472
      4.65000000	     -8.84982660	      3.22520115	    -49.00363127	      1.08274184	      0.85880143	      0.95246040	      1.09077506	     -2.11179837	     12.29206513	    -41.37232947	     -3.80409235	      7.55213847	     29.12725783	     -7.04181797	     -0.33412854	    -26.52621081	      8.70702913	      1.31859478	      1.82088047	      2.48551899	     17.76461554
      4.66000000	     -8.69303785	      3.47321940	    -49.17084552	      1.08779927	      0.85900202	      0.95407469	      2.73968354	     -2.73704891	     11.19831267	    -43.69836922	     -3.27928097	      7.24391690	     28.82213867	     -6.61231777	     -0.61117384	    -26.55356700	      9.07243743	      0.81490450	      1.74644366	      2.18815136	     17.84720121
      4.67000000	     -8.45885223	      3.69912462	    -49.32825816	      1.09280691	      0.85929915	      0.95555452	      4.33191317	     -3.46379119	     10.09714283	    -45.89868424	     -2.41191879	      6.75285257	     28.42407957	     -6.11973107	     -0.85968278	    -26.51506614	      9.41202452	      0.45849387	      1.59688223	      1.85623833	     17.87883311
      4.68000000	     -8.22535991	      3.89053858	    -49.46602527	      1.09775131	      0.85966208	      0.95695683	      5.87614041	     -4.19499901	      9.02023442	    -47.90072335	     -1.27251728	      5.97036654	     27.99962109	     -5.63911877	     -1.08363624	    -26.44505406	      9.73049501	      0.08155978	      1.42809966	      1.56377178	     17.84546257
      4.69000000	     -8.00762345	      4.02964466	    -49.56737313	      1.10262625	      0.86013693	      0.95827531	      7.34163018	     -4.87960412	      7.98998788	    -49.65352794	      0.05332477	      4.97587606	     27.54656443	     -5.18832103	     -1.26096082	    -26.33504634	      9.99635882	     -0.25678680	      1.23513446	      1.33288334	     17.76987677
      4.70000000	     -7.82561944	      4.10655575	    -49.62812760	      1.10741193	      0.86073757	      0.95956580	      8.70930787	     -5.46418032	      7.02954804	    -51.11713984	      1.47104806	      3.82540463	     27.07134183	     -4.79482906	     -1.38567777	    -26.19146728	     10.22786358	     -0.55793932	      1.02802104	      1.18174344	     17.63129024
      4.71000000	     -7.69148474	      4.11690079	    -49.63947941	      1.11210161	      0.86146777	      0.96083524	      9.96768795	     -5.91699710	      6.13600357	    -52.26614495	      2.88902978	      2.60731516	     26.58177209	     -4.46982054	     -1.44524652	    -26.01904215	     10.42275734	     -0.81780819	      0.81233924	      1.12014491	     17.42705377
      4.72000000	     -7.61491650	      4.06347800	    -49.60240610	      1.11668503	      0.86232070	      0.96212183	     11.11203874	     -6.22051924	      5.29890390	    -53.08215040	      4.24686316	      1.42746456	     26.07920690	     -4.22356175	     -1.43742986	    -25.80954876	     10.58697049	     -1.03469319	      0.60197790	      1.14973943	     17.17123124
      4.73000000	     -7.58925893	      3.93769272	    -49.51140180	      1.12113805	      0.86328856	      0.96341686	     12.12771699	     -6.36823990	      4.49842714	    -53.56715376	      5.49272970	      0.36381607	     25.57612248	     -4.06294576	     -1.38785293	    -25.60738555	     10.73877740	     -1.21055175	      0.37862402	      1.26810101	     16.83570290
      4.74000000	     -7.61560381	      3.76980121	    -49.38664063	      1.12542250	      0.86433001	      0.96472795	     13.04761558	     -6.37306481	      3.75199778	    -53.73249469	      6.62963092	     -0.50491360	     25.07349796	     -3.97244712	     -1.27815327	    -25.37192636	     10.86493443	     -1.34639503	      0.16998724	      1.45100368	     16.46860899
